<svg xmlns="http://www.w3.org/2000/svg" viewBox="0 0 1100 560" font-family="'Noto Sans TC', 'Helvetica Neue', sans-serif">
  <defs>
    <linearGradient id="bgG" x1="0" y1="0" x2="1" y2="1">
      <stop offset="0%" stop-color="#0f172a"/>
      <stop offset="100%" stop-color="#1e293b"/>
    </linearGradient>
    <marker id="a" viewBox="0 0 10 7" refX="10" refY="3.5" markerWidth="7" markerHeight="5" orient="auto">
      <path d="M0 0L10 3.5 0 7z" fill="#475569"/>
    </marker>
    <filter id="s">
      <feDropShadow dx="0" dy="2" stdDeviation="4" flood-color="#000" flood-opacity="0.25"/>
    </filter>
  </defs>

  <rect width="1100" height="560" rx="16" fill="url(#bgG)"/>
  <text x="550" y="40" text-anchor="middle" fill="#e2e8f0" font-size="18" font-weight="700" letter-spacing="1">系統架構</text>
  <line x1="480" y1="50" x2="620" y2="50" stroke="#334155" stroke-width="1"/>

  <!-- ═══ 前端層 ═══ -->
  <rect x="30" y="68" width="1040" height="168" rx="12" fill="rgba(59,130,246,0.06)" stroke="#1e3a5f" stroke-width="1"/>
  <text x="50" y="90" fill="#60a5fa" font-size="12" font-weight="700">前端應用層</text>
  <text x="140" y="90" fill="#334155" font-size="9">Static HTML + JavaScript</text>

  <!-- 學員端 -->
  <g filter="url(#s)">
    <rect x="50" y="104" width="230" height="120" rx="10" fill="#172554" stroke="#1d4ed8" stroke-width="1"/>
    <text x="165" y="124" text-anchor="middle" fill="#93c5fd" font-size="11" font-weight="600">學員端（手機）</text>
    <g font-size="9" fill="#64748b">
      <rect x="62" y="134" width="100" height="24" rx="5" fill="#1e293b" stroke="#334155" stroke-width="0.5"/>
      <text x="112" y="150" text-anchor="middle" fill="#94a3b8">pre-class.html</text>
      <rect x="168" y="134" width="100" height="24" rx="5" fill="#1e293b" stroke="#334155" stroke-width="0.5"/>
      <text x="218" y="150" text-anchor="middle" fill="#94a3b8">student.html</text>
      <rect x="62" y="164" width="100" height="24" rx="5" fill="#1e293b" stroke="#334155" stroke-width="0.5"/>
      <text x="112" y="180" text-anchor="middle" fill="#94a3b8">post-class.html</text>
      <rect x="168" y="164" width="100" height="24" rx="5" fill="#1e293b" stroke="#334155" stroke-width="0.5"/>
      <text x="218" y="180" text-anchor="middle" fill="#94a3b8">course-summary</text>
      <rect x="62" y="194" width="100" height="24" rx="5" fill="#1e293b" stroke="#334155" stroke-width="0.5"/>
      <text x="112" y="210" text-anchor="middle" fill="#94a3b8">portal.html</text>
    </g>
  </g>

  <!-- 講師端 -->
  <g filter="url(#s)">
    <rect x="310" y="104" width="230" height="120" rx="10" fill="#2e1065" stroke="#7c3aed" stroke-width="1"/>
    <text x="425" y="124" text-anchor="middle" fill="#c4b5fd" font-size="11" font-weight="600">講師端（電腦）</text>
    <g font-size="9">
      <rect x="322" y="134" width="100" height="24" rx="5" fill="#1e293b" stroke="#334155" stroke-width="0.5"/>
      <text x="372" y="150" text-anchor="middle" fill="#94a3b8">editor.html</text>
      <rect x="428" y="134" width="100" height="24" rx="5" fill="#1e293b" stroke="#334155" stroke-width="0.5"/>
      <text x="478" y="150" text-anchor="middle" fill="#94a3b8">簡報播放模式</text>
      <rect x="322" y="164" width="100" height="24" rx="5" fill="#1e293b" stroke="#334155" stroke-width="0.5"/>
      <text x="372" y="180" text-anchor="middle" fill="#94a3b8">report.html</text>
      <rect x="428" y="164" width="100" height="24" rx="5" fill="#1e293b" stroke="#334155" stroke-width="0.5"/>
      <text x="478" y="180" text-anchor="middle" fill="#94a3b8">admin-preclass</text>
    </g>
  </g>

  <!-- 管理端 -->
  <g filter="url(#s)">
    <rect x="570" y="104" width="230" height="120" rx="10" fill="#1c1917" stroke="#57534e" stroke-width="1"/>
    <text x="685" y="124" text-anchor="middle" fill="#a8a29e" font-size="11" font-weight="600">管理端</text>
    <g font-size="9">
      <rect x="582" y="134" width="100" height="24" rx="5" fill="#1e293b" stroke="#334155" stroke-width="0.5"/>
      <text x="632" y="150" text-anchor="middle" fill="#94a3b8">manage.html</text>
      <rect x="688" y="134" width="100" height="24" rx="5" fill="#1e293b" stroke="#334155" stroke-width="0.5"/>
      <text x="738" y="150" text-anchor="middle" fill="#94a3b8">members.html</text>
      <rect x="582" y="164" width="100" height="24" rx="5" fill="#1e293b" stroke="#334155" stroke-width="0.5"/>
      <text x="632" y="180" text-anchor="middle" fill="#94a3b8">organizations</text>
      <rect x="688" y="164" width="100" height="24" rx="5" fill="#1e293b" stroke="#334155" stroke-width="0.5"/>
      <text x="738" y="180" text-anchor="middle" fill="#94a3b8">settings.html</text>
      <rect x="582" y="194" width="100" height="24" rx="5" fill="#1e293b" stroke="#334155" stroke-width="0.5"/>
      <text x="632" y="210" text-anchor="middle" fill="#94a3b8">partners.html</text>
    </g>
  </g>

  <!-- 公開頁面 -->
  <g filter="url(#s)">
    <rect x="830" y="104" width="230" height="120" rx="10" fill="#1a2332" stroke="#334155" stroke-width="1"/>
    <text x="945" y="124" text-anchor="middle" fill="#94a3b8" font-size="11" font-weight="600">公開頁面</text>
    <g font-size="9">
      <rect x="842" y="134" width="100" height="24" rx="5" fill="#1e293b" stroke="#334155" stroke-width="0.5"/>
      <text x="892" y="150" text-anchor="middle" fill="#94a3b8">login.html</text>
      <rect x="948" y="134" width="100" height="24" rx="5" fill="#1e293b" stroke="#334155" stroke-width="0.5"/>
      <text x="998" y="150" text-anchor="middle" fill="#94a3b8">index.html</text>
      <rect x="842" y="164" width="100" height="24" rx="5" fill="#1e293b" stroke="#334155" stroke-width="0.5"/>
      <text x="892" y="180" text-anchor="middle" fill="#94a3b8">affiliate-*</text>
    </g>
  </g>

  <!-- ═══ 通訊層 ═══ -->
  <rect x="30" y="248" width="1040" height="48" rx="10" fill="rgba(99,102,241,0.08)" stroke="#312e81" stroke-width="1"/>
  <g font-size="10" fill="#818cf8" text-anchor="middle">
    <text x="200" y="277">REST API</text>
    <text x="400" y="277">WebSocket（即時同步）</text>
    <text x="600" y="277">JWT Auth</text>
    <text x="800" y="277">File Upload</text>
    <text x="980" y="277">Edge Functions</text>
  </g>
  <!-- 箭頭：前端→通訊 -->
  <line x1="550" y1="224" x2="550" y2="248" stroke="#475569" stroke-width="1.5" marker-end="url(#a)"/>

  <!-- ═══ 後端層 ═══ -->
  <rect x="30" y="308" width="1040" height="130" rx="12" fill="rgba(16,185,129,0.05)" stroke="#064e3b" stroke-width="1"/>
  <text x="50" y="330" fill="#34d399" font-size="12" font-weight="700">InsForge Backend</text>

  <!-- 通訊→後端 -->
  <line x1="550" y1="296" x2="550" y2="308" stroke="#475569" stroke-width="1.5" marker-end="url(#a)"/>

  <!-- Database -->
  <g filter="url(#s)">
    <rect x="50" y="342" width="280" height="84" rx="10" fill="#0f172a" stroke="#334155" stroke-width="1"/>
    <text x="190" y="362" text-anchor="middle" fill="#34d399" font-size="11" font-weight="600">Database（PostgreSQL）</text>
    <g font-size="8" fill="#64748b">
      <rect x="62" y="370" width="60" height="18" rx="4" fill="#1e293b" stroke="#334155" stroke-width="0.5"/>
      <text x="92" y="383" text-anchor="middle" fill="#94a3b8">students</text>
      <rect x="126" y="370" width="60" height="18" rx="4" fill="#1e293b" stroke="#334155" stroke-width="0.5"/>
      <text x="156" y="383" text-anchor="middle" fill="#94a3b8">projects</text>
      <rect x="190" y="370" width="60" height="18" rx="4" fill="#1e293b" stroke="#334155" stroke-width="0.5"/>
      <text x="220" y="383" text-anchor="middle" fill="#94a3b8">sessions</text>
      <rect x="254" y="370" width="64" height="18" rx="4" fill="#1e293b" stroke="#334155" stroke-width="0.5"/>
      <text x="286" y="383" text-anchor="middle" fill="#94a3b8">submissions</text>
      <rect x="62" y="394" width="60" height="18" rx="4" fill="#1e293b" stroke="#334155" stroke-width="0.5"/>
      <text x="92" y="407" text-anchor="middle" fill="#94a3b8">survey_*</text>
      <rect x="126" y="394" width="60" height="18" rx="4" fill="#1e293b" stroke="#334155" stroke-width="0.5"/>
      <text x="156" y="407" text-anchor="middle" fill="#94a3b8">checklist_*</text>
      <rect x="190" y="394" width="60" height="18" rx="4" fill="#1e293b" stroke="#334155" stroke-width="0.5"/>
      <text x="220" y="407" text-anchor="middle" fill="#94a3b8">exam_*</text>
      <rect x="254" y="394" width="64" height="18" rx="4" fill="#1e293b" stroke="#334155" stroke-width="0.5"/>
      <text x="286" y="407" text-anchor="middle" fill="#94a3b8">email_drafts</text>
    </g>
  </g>

  <!-- Auth -->
  <g filter="url(#s)">
    <rect x="350" y="342" width="140" height="84" rx="10" fill="#0f172a" stroke="#334155" stroke-width="1"/>
    <text x="420" y="362" text-anchor="middle" fill="#34d399" font-size="11" font-weight="600">Auth</text>
    <text x="420" y="384" text-anchor="middle" fill="#64748b" font-size="9">JWT 驗證</text>
    <text x="420" y="400" text-anchor="middle" fill="#64748b" font-size="9">角色控管</text>
    <text x="420" y="416" text-anchor="middle" fill="#64748b" font-size="9">RLS 策略</text>
  </g>

  <!-- Storage -->
  <g filter="url(#s)">
    <rect x="510" y="342" width="140" height="84" rx="10" fill="#0f172a" stroke="#334155" stroke-width="1"/>
    <text x="580" y="362" text-anchor="middle" fill="#34d399" font-size="11" font-weight="600">Storage</text>
    <text x="580" y="384" text-anchor="middle" fill="#64748b" font-size="9">圖片上傳</text>
    <text x="580" y="400" text-anchor="middle" fill="#64748b" font-size="9">作業附件</text>
    <text x="580" y="416" text-anchor="middle" fill="#64748b" font-size="9">靜態資源</text>
  </g>

  <!-- Edge Functions -->
  <g filter="url(#s)">
    <rect x="670" y="342" width="180" height="84" rx="10" fill="#0f172a" stroke="#334155" stroke-width="1"/>
    <text x="760" y="362" text-anchor="middle" fill="#34d399" font-size="11" font-weight="600">Edge Functions</text>
    <g font-size="9" fill="#64748b">
      <text x="760" y="384" text-anchor="middle">send-email</text>
      <text x="760" y="400" text-anchor="middle">purchase-webhook</text>
      <text x="760" y="416" text-anchor="middle">AI chat（摘要 / 信件）</text>
    </g>
  </g>

  <!-- Real-time -->
  <g filter="url(#s)">
    <rect x="870" y="342" width="190" height="84" rx="10" fill="#0f172a" stroke="#334155" stroke-width="1"/>
    <text x="965" y="362" text-anchor="middle" fill="#34d399" font-size="11" font-weight="600">Real-time</text>
    <g font-size="9" fill="#64748b">
      <text x="965" y="384" text-anchor="middle">WebSocket 連線管理</text>
      <text x="965" y="400" text-anchor="middle">投影片同步</text>
      <text x="965" y="416" text-anchor="middle">互動即時推播</text>
    </g>
  </g>

  <!-- ═══ 外部服務層 ═══ -->
  <rect x="30" y="456" width="1040" height="84" rx="12" fill="rgba(249,115,22,0.05)" stroke="#7c2d12" stroke-width="1"/>
  <text x="50" y="478" fill="#fb923c" font-size="12" font-weight="700">外部服務</text>

  <!-- 後端→外部 -->
  <line x1="550" y1="438" x2="550" y2="456" stroke="#475569" stroke-width="1.5" marker-end="url(#a)"/>

  <g filter="url(#s)" font-size="10">
    <rect x="80" y="492" width="180" height="36" rx="8" fill="#1c1917" stroke="#57534e" stroke-width="1"/>
    <text x="170" y="515" text-anchor="middle" fill="#fbbf24" font-weight="500">金流平台（Webhook）</text>

    <rect x="300" y="492" width="180" height="36" rx="8" fill="#1c1917" stroke="#57534e" stroke-width="1"/>
    <text x="390" y="515" text-anchor="middle" fill="#fbbf24" font-weight="500">Email 發信服務</text>

    <rect x="520" y="492" width="180" height="36" rx="8" fill="#1c1917" stroke="#57534e" stroke-width="1"/>
    <text x="610" y="515" text-anchor="middle" fill="#fbbf24" font-weight="500">AI / LLM API</text>

    <rect x="740" y="492" width="180" height="36" rx="8" fill="#1c1917" stroke="#57534e" stroke-width="1"/>
    <text x="830" y="515" text-anchor="middle" fill="#fbbf24" font-weight="500">CDN / 靜態部署</text>
  </g>
</svg>
